<?xml version="1.0" encoding="UTF-8"?>
<svg xmlns="http://www.w3.org/2000/svg" xmlns:xlink="http://www.w3.org/1999/xlink" width="152.396805pt" height="152.397598pt" viewBox="0 0 152.396805 152.397598" version="1.1">
<g id="surface1">
<path style=" stroke:none;fill-rule:nonzero;fill:rgb(100%,100%,100%);fill-opacity:1;" d="M 37.5625 118.953125 C 45.429688 118.535156 50.402344 115.96875 52.351562 111.304688 C 53.179688 109.324219 53.265625 107.210938 53 105.160156 C 54.808594 106.113281 57.128906 107 59.519531 107 C 59.988281 107 60.449219 106.972656 60.914062 106.902344 C 63.339844 106.535156 65.394531 105.136719 66.847656 102.882812 C 67.511719 101.839844 67.214844 100.453125 66.175781 99.78125 C 65.136719 99.128906 63.746094 99.425781 63.078125 100.457031 C 62.308594 101.65625 61.410156 102.289062 60.253906 102.472656 C 57.355469 102.929688 53.59375 100.421875 52.378906 99.425781 C 51.988281 99.089844 51.515625 98.964844 51.035156 98.953125 C 50.191406 97.269531 49.246094 95.855469 48.476562 94.984375 C 39.566406 85.015625 39.1875 76.820312 39.179688 76.695312 C 39.152344 75.464844 38.195312 74.648438 36.890625 74.511719 C 35.660156 74.539062 34.675781 75.554688 34.695312 76.796875 C 34.707031 77.195312 35 86.640625 45.132812 97.972656 C 47.011719 100.09375 49.859375 105.667969 48.21875 109.59375 C 46.695312 113.238281 41.460938 114.273438 37.335938 114.492188 C 36.101562 114.5625 35.152344 115.613281 35.214844 116.839844 C 35.28125 118.042969 36.261719 118.96875 37.449219 118.96875 Z M 37.5625 118.953125 "/>
<path style=" stroke:none;fill-rule:nonzero;fill:rgb(100%,100%,100%);fill-opacity:1;" d="M 36.992188 71.644531 C 36.976562 71.628906 40.011719 71.1875 43.160156 78.644531 C 43.382812 79.1875 45.46875 83.980469 49.75 85.25 C 50.308594 85.414062 50.996094 85.542969 51.773438 85.542969 C 53.203125 85.542969 54.949219 85.125 56.886719 83.777344 C 57.910156 83.078125 58.164062 81.675781 57.453125 80.667969 C 56.753906 79.636719 55.351562 79.394531 54.34375 80.097656 C 53.101562 80.949219 52.007812 81.238281 51.03125 80.949219 C 49.128906 80.398438 47.703125 77.859375 47.304688 76.917969 C 42.496094 65.492188 36.378906 67.140625 35.703125 67.355469 C 34.53125 67.746094 33.832031 69.03125 34.222656 70.210938 C 34.609375 71.386719 35.804688 72.023438 36.992188 71.644531 Z M 36.992188 71.644531 "/>
<path style=" stroke:none;fill-rule:nonzero;fill:rgb(100%,100%,100%);fill-opacity:1;" d="M 58.207031 58.761719 C 57.742188 59.914062 58.285156 61.222656 59.421875 61.691406 L 60.277344 61.859375 C 61.152344 61.859375 61.992188 61.339844 62.351562 60.476562 C 68.796875 44.902344 63.203125 23.117188 62.96875 22.199219 C 62.65625 21 61.445312 20.253906 60.238281 20.601562 C 59.035156 20.910156 58.320312 22.140625 58.640625 23.335938 C 58.6875 23.550781 64.082031 44.570312 58.207031 58.761719 Z M 58.207031 58.761719 "/>
<path style=" stroke:none;fill-rule:nonzero;fill:rgb(100%,100%,100%);fill-opacity:1;" d="M 55.957031 117.617188 C 54.742188 117.433594 53.589844 118.257812 53.398438 119.480469 C 53.207031 120.707031 54.042969 121.855469 55.265625 122.046875 C 55.359375 122.054688 63.707031 123.460938 65.902344 131.820312 C 66.164062 132.824219 67.074219 133.492188 68.066406 133.492188 L 68.632812 133.410156 C 69.835938 133.097656 70.542969 131.867188 70.226562 130.679688 C 67.304688 119.53125 56.417969 117.691406 55.957031 117.617188 Z M 55.957031 117.617188 "/>
<path style=" stroke:none;fill-rule:nonzero;fill:rgb(100%,100%,100%);fill-opacity:1;" d="M 59.792969 137.367188 C 54.113281 138.671875 45.214844 127.84375 40.917969 120.742188 C 40.273438 119.683594 38.902344 119.351562 37.839844 119.992188 C 36.78125 120.632812 36.4375 122 37.078125 123.066406 C 38.304688 125.101562 48.816406 141.949219 58.886719 141.949219 C 59.515625 141.949219 60.132812 141.878906 60.757812 141.746094 C 61.972656 141.476562 62.726562 140.28125 62.464844 139.070312 C 62.203125 137.859375 61.007812 137.109375 59.792969 137.367188 Z M 59.792969 137.367188 "/>
<path style=" stroke:none;fill-rule:nonzero;fill:rgb(100%,100%,100%);fill-opacity:1;" d="M 36.414062 109.09375 C 37.515625 109.09375 38.480469 108.277344 38.632812 107.152344 C 38.789062 105.921875 37.933594 104.796875 36.703125 104.628906 C 31.820312 103.980469 29.378906 95.296875 28.796875 91.703125 C 29.8125 76.007812 24.21875 70.21875 23.972656 69.972656 C 23.117188 69.113281 21.722656 69.109375 20.847656 69.960938 C 19.96875 70.808594 19.949219 72.226562 20.777344 73.117188 C 20.824219 73.167969 25.238281 78.054688 24.304688 91.648438 L 24.328125 92.132812 C 24.425781 92.769531 26.757812 107.828125 36.109375 109.066406 Z M 36.414062 109.09375 "/>
<path style=" stroke:none;fill-rule:nonzero;fill:rgb(100%,100%,100%);fill-opacity:1;" d="M 46.296875 69.097656 C 45.796875 70.230469 46.304688 71.550781 47.4375 72.054688 L 48.34375 72.246094 C 49.195312 72.246094 50.023438 71.753906 50.390625 70.917969 C 52.726562 65.65625 50.277344 56.425781 49.988281 55.386719 L 49.757812 54.84375 C 43.898438 44.945312 51.816406 34.984375 52.152344 34.566406 C 52.605469 34.007812 52.710938 33.3125 52.570312 32.660156 C 53.332031 33.542969 54.15625 34.429688 55.117188 35.320312 C 55.554688 35.714844 56.097656 35.914062 56.644531 35.914062 C 57.253906 35.914062 57.847656 35.671875 58.289062 35.199219 C 59.128906 34.289062 59.074219 32.867188 58.171875 32.027344 C 54.101562 28.269531 52.175781 24.71875 52.578125 21.765625 C 53.078125 18.097656 57.042969 16.007812 57.144531 15.953125 C 58.246094 15.398438 58.691406 14.054688 58.140625 12.949219 C 57.585938 11.847656 56.238281 11.390625 55.132812 11.945312 C 54.882812 12.070312 49.007812 15.070312 48.152344 21.105469 C 47.683594 24.347656 48.78125 27.714844 51.347656 31.160156 C 50.445312 30.738281 49.347656 30.921875 48.679688 31.734375 C 48.261719 32.242188 38.578125 44.339844 45.742188 56.859375 C 46.386719 59.339844 47.667969 66.003906 46.296875 69.097656 Z M 46.296875 69.097656 "/>
<path style=" stroke:none;fill-rule:nonzero;fill:rgb(100%,100%,100%);fill-opacity:1;" d="M 68.496094 68.375 C 67.714844 71.230469 61.445312 71.308594 58.519531 70.898438 C 57.324219 70.769531 56.160156 71.578125 55.984375 72.804688 C 55.820312 74.027344 56.667969 75.160156 57.894531 75.335938 C 58.296875 75.394531 59.671875 75.570312 61.445312 75.570312 C 65.4375 75.570312 71.433594 74.679688 72.828125 69.554688 C 73.144531 68.355469 72.449219 67.128906 71.253906 66.800781 C 70.058594 66.492188 68.828125 67.1875 68.496094 68.375 Z M 68.496094 68.375 "/>
<path style=" stroke:none;fill-rule:nonzero;fill:rgb(100%,100%,100%);fill-opacity:1;" d="M 138.382812 73.882812 C 141.742188 53.199219 133.242188 46.289062 130.277344 44.550781 C 131.425781 31.011719 123.804688 25.234375 121.324219 23.734375 C 121.101562 21.253906 120.402344 18.921875 119.15625 16.769531 C 114.367188 8.554688 103.648438 5.90625 102.128906 5.5625 C 98.601562 1.890625 94.839844 0 90.878906 0 L 90.671875 0.00390625 C 83.867188 0.117188 78.667969 5.734375 76.210938 8.988281 C 73.75 5.734375 68.554688 0.117188 61.75 0.00390625 L 61.539062 0 C 57.582031 0 53.820312 1.890625 50.296875 5.5625 C 48.769531 5.90625 38.058594 8.554688 33.261719 16.769531 C 32.015625 18.921875 31.300781 21.253906 31.097656 23.734375 C 28.617188 25.234375 20.992188 31.011719 22.140625 44.542969 C 19.191406 46.285156 10.671875 53.195312 14.035156 73.878906 C 13.207031 75.425781 7.976562 85.746094 10.765625 95.636719 C 11.414062 97.917969 12.496094 99.953125 13.875 101.804688 C 13.613281 104.394531 13.289062 116.621094 28.304688 127.851562 C 34.03125 132.144531 39.429688 138.402344 44.34375 146.4375 L 44.828125 147 C 45.132812 147.261719 51.503906 152.398438 59.132812 152.398438 C 60.570312 152.398438 62.050781 152.214844 63.542969 151.769531 C 68.84375 150.25 73.066406 145.941406 76.1875 139.015625 C 79.304688 145.941406 83.53125 150.25 88.828125 151.769531 C 90.328125 152.214844 91.804688 152.398438 93.238281 152.398438 C 100.867188 152.394531 107.238281 147.261719 107.554688 147 L 108.035156 146.4375 C 112.949219 138.40625 118.339844 132.152344 124.074219 127.851562 C 139.0625 116.636719 138.753906 104.414062 138.492188 101.808594 C 139.890625 99.960938 140.96875 97.917969 141.605469 95.636719 C 144.441406 85.757812 139.222656 75.449219 138.382812 73.882812 Z M 73.609375 133.472656 C 70.914062 141.371094 67.136719 146.074219 62.351562 147.464844 C 55.960938 149.335938 49.367188 144.78125 47.960938 143.734375 C 42.8125 135.390625 37.105469 128.835938 31.003906 124.261719 C 21.972656 117.503906 19.308594 110.566406 18.5625 106.265625 C 19.285156 106.777344 19.972656 107.304688 20.785156 107.761719 L 21.875 108.039062 C 22.660156 108.039062 23.421875 107.628906 23.832031 106.890625 C 24.445312 105.8125 24.058594 104.449219 22.976562 103.839844 C 11.972656 97.691406 13.949219 86.488281 16.164062 80.242188 L 17.203125 80.53125 L 17.707031 80.472656 C 18.917969 80.195312 19.667969 78.988281 19.386719 77.78125 C 15.164062 59.488281 20.015625 52.113281 22.933594 49.472656 C 23.492188 52.035156 24.300781 54.792969 25.492188 57.828125 C 25.84375 58.710938 26.691406 59.242188 27.578125 59.242188 L 28.40625 59.085938 C 29.558594 58.628906 30.125 57.324219 29.667969 56.183594 C 23.113281 39.621094 28.128906 31.96875 31.433594 28.992188 C 31.632812 30.070312 31.835938 31.148438 32.203125 32.269531 C 32.503906 33.214844 33.386719 33.816406 34.339844 33.816406 L 35.023438 33.710938 C 36.207031 33.328125 36.84375 32.0625 36.460938 30.886719 C 34.988281 26.332031 35.214844 22.34375 37.140625 19.027344 C 39.125 15.589844 42.621094 13.328125 45.644531 11.914062 C 45.453125 12.800781 45.800781 13.746094 46.617188 14.265625 C 47.648438 14.921875 49.042969 14.628906 49.707031 13.578125 C 53.546875 7.527344 57.539062 4.464844 61.546875 4.464844 L 61.660156 4.46875 C 67.566406 4.558594 72.359375 11.15625 73.597656 13.027344 Z M 121.425781 124.261719 C 115.320312 128.84375 109.617188 135.394531 104.46875 143.742188 C 103.066406 144.792969 96.488281 149.332031 90.105469 147.472656 C 85.320312 146.089844 81.523438 141.390625 78.824219 133.488281 L 78.824219 13.035156 C 80.601562 10.277344 85.390625 4.578125 90.753906 4.492188 L 90.867188 4.488281 C 94.882812 4.488281 98.859375 7.558594 102.714844 13.601562 C 103.382812 14.648438 104.777344 14.949219 105.804688 14.285156 C 106.621094 13.769531 106.964844 12.824219 106.777344 11.9375 C 109.8125 13.351562 113.292969 15.609375 115.277344 19.042969 C 117.207031 22.359375 117.429688 26.351562 115.957031 30.902344 C 115.578125 32.082031 116.222656 33.34375 117.394531 33.726562 L 118.082031 33.835938 C 119.03125 33.835938 119.90625 33.230469 120.210938 32.285156 C 120.578125 31.164062 120.78125 30.082031 120.988281 29.007812 C 124.285156 31.988281 129.308594 39.632812 122.757812 56.199219 C 122.300781 57.34375 122.867188 58.648438 124.015625 59.101562 L 124.839844 59.261719 C 125.734375 59.261719 126.574219 58.726562 126.925781 57.84375 C 128.132812 54.8125 128.929688 52.058594 129.488281 49.496094 C 132.402344 52.140625 137.253906 59.507812 133.035156 77.796875 C 132.757812 79.003906 133.507812 80.203125 134.71875 80.488281 L 135.21875 80.546875 L 136.222656 80.277344 C 137.519531 83.96875 138.753906 89.355469 137.324219 94.421875 C 136.210938 98.390625 133.558594 101.5625 129.453125 103.851562 C 128.378906 104.457031 127.988281 105.824219 128.597656 106.90625 C 129.007812 107.640625 129.777344 108.054688 130.558594 108.054688 L 131.652344 107.773438 C 132.460938 107.320312 133.144531 106.789062 133.859375 106.28125 C 133.128906 110.574219 130.449219 117.511719 121.425781 124.261719 Z M 121.425781 124.261719 "/>
<path style=" stroke:none;fill-rule:nonzero;fill:rgb(100%,100%,100%);fill-opacity:1;" d="M 95.300781 15.960938 C 95.339844 15.980469 99.324219 18.066406 99.847656 21.742188 C 100.28125 24.695312 98.34375 28.257812 94.265625 32.027344 C 93.363281 32.871094 93.300781 34.289062 94.144531 35.199219 C 94.59375 35.671875 95.183594 35.917969 95.792969 35.917969 C 96.335938 35.917969 96.875 35.71875 97.316406 35.320312 C 98.273438 34.429688 99.097656 33.542969 99.867188 32.664062 C 99.722656 33.316406 99.824219 34.015625 100.285156 34.570312 C 100.371094 34.667969 108.570312 44.898438 102.675781 54.847656 L 102.449219 55.386719 C 102.167969 56.417969 99.714844 65.65625 102.046875 70.917969 C 102.414062 71.753906 103.238281 72.246094 104.097656 72.246094 L 105 72.054688 C 106.132812 71.550781 106.644531 70.226562 106.140625 69.097656 C 104.902344 66.3125 105.804688 60.238281 106.695312 56.863281 C 113.859375 44.339844 104.167969 32.246094 103.746094 31.738281 C 103.09375 30.929688 101.992188 30.742188 101.085938 31.164062 C 103.660156 27.722656 104.753906 24.355469 104.289062 21.109375 C 103.4375 15.074219 97.554688 12.074219 97.304688 11.949219 C 96.199219 11.398438 94.855469 11.851562 94.296875 12.957031 C 93.746094 14.058594 94.191406 15.402344 95.300781 15.960938 Z M 95.300781 15.960938 "/>
<path style=" stroke:none;fill-rule:nonzero;fill:rgb(100%,100%,100%);fill-opacity:1;" d="M 115.105469 114.480469 C 110.980469 114.261719 105.742188 113.238281 104.222656 109.578125 C 102.585938 105.648438 105.4375 100.074219 107.3125 97.960938 C 117.445312 86.636719 117.730469 77.175781 117.738281 76.78125 C 117.765625 75.550781 116.785156 74.539062 115.558594 74.507812 C 114.296875 74.441406 113.300781 75.453125 113.257812 76.679688 C 113.257812 76.765625 112.898438 84.980469 103.96875 94.976562 C 103.1875 95.832031 102.242188 97.257812 101.40625 98.933594 C 100.933594 98.953125 100.457031 99.082031 100.054688 99.414062 C 98.84375 100.414062 95.105469 102.90625 92.191406 102.464844 C 91.03125 102.277344 90.125 101.628906 89.363281 100.445312 C 88.695312 99.402344 87.296875 99.101562 86.269531 99.769531 C 85.226562 100.441406 84.917969 101.828125 85.59375 102.871094 C 87.046875 105.132812 89.101562 106.523438 91.527344 106.894531 C 91.992188 106.96875 92.457031 106.988281 92.914062 106.988281 C 95.3125 106.988281 97.625 106.105469 99.4375 105.144531 C 99.164062 107.199219 99.261719 109.304688 100.089844 111.289062 C 102.03125 115.953125 107.003906 118.519531 114.875 118.9375 L 114.988281 118.941406 C 116.179688 118.941406 117.160156 118.015625 117.226562 116.8125 C 117.289062 115.601562 116.339844 114.542969 115.105469 114.480469 Z M 115.105469 114.480469 "/>
<path style=" stroke:none;fill-rule:nonzero;fill:rgb(100%,100%,100%);fill-opacity:1;" d="M 101.40625 80.960938 C 100.425781 81.234375 99.34375 80.96875 98.097656 80.101562 C 97.09375 79.394531 95.679688 79.644531 94.980469 80.671875 C 94.285156 81.6875 94.53125 83.082031 95.550781 83.789062 C 97.496094 85.128906 99.230469 85.546875 100.667969 85.546875 C 101.445312 85.546875 102.128906 85.425781 102.691406 85.257812 C 106.96875 84 109.058594 79.191406 109.277344 78.667969 C 112.328125 71.429688 115.21875 71.667969 115.429688 71.652344 C 116.589844 71.984375 117.769531 71.335938 118.152344 70.203125 C 118.539062 69.023438 117.902344 67.757812 116.742188 67.367188 C 116.054688 67.140625 109.949219 65.492188 105.140625 76.9375 C 104.742188 77.859375 103.308594 80.398438 101.40625 80.960938 Z M 101.40625 80.960938 "/>
<path style=" stroke:none;fill-rule:nonzero;fill:rgb(100%,100%,100%);fill-opacity:1;" d="M 92.152344 61.863281 L 93.011719 61.695312 C 94.152344 61.226562 94.695312 59.917969 94.222656 58.765625 C 88.359375 44.601562 93.753906 23.554688 93.792969 23.34375 C 94.109375 22.144531 93.390625 20.921875 92.191406 20.613281 C 90.988281 20.269531 89.773438 21.015625 89.46875 22.207031 C 89.222656 23.128906 83.644531 44.910156 90.089844 60.484375 C 90.441406 61.34375 91.265625 61.863281 92.152344 61.863281 Z M 92.152344 61.863281 "/>
<path style=" stroke:none;fill-rule:nonzero;fill:rgb(100%,100%,100%);fill-opacity:1;" d="M 97.179688 122.046875 C 98.398438 121.855469 99.230469 120.707031 99.039062 119.492188 C 98.84375 118.265625 97.664062 117.441406 96.480469 117.625 C 96.015625 117.699219 85.136719 119.539062 82.199219 130.6875 C 81.882812 131.882812 82.597656 133.105469 83.789062 133.421875 L 84.359375 133.5 C 85.359375 133.5 86.269531 132.835938 86.523438 131.828125 C 88.703125 123.570312 96.789062 122.109375 97.179688 122.046875 Z M 97.179688 122.046875 "/>
<path style=" stroke:none;fill-rule:nonzero;fill:rgb(100%,100%,100%);fill-opacity:1;" d="M 114.589844 119.992188 C 113.546875 119.355469 112.152344 119.6875 111.507812 120.742188 C 107.210938 127.84375 98.289062 138.691406 92.632812 137.367188 C 91.417969 137.109375 90.226562 137.859375 89.957031 139.070312 C 89.683594 140.285156 90.445312 141.476562 91.652344 141.75 C 92.28125 141.878906 92.894531 141.953125 93.535156 141.953125 C 103.605469 141.953125 114.113281 125.105469 115.335938 123.070312 C 115.988281 122.003906 115.652344 120.628906 114.589844 119.992188 Z M 114.589844 119.992188 "/>
<path style=" stroke:none;fill-rule:nonzero;fill:rgb(100%,100%,100%);fill-opacity:1;" d="M 131.640625 73.121094 C 132.492188 72.242188 132.480469 70.839844 131.617188 69.972656 C 130.746094 69.101562 129.324219 69.101562 128.445312 69.972656 C 128.203125 70.21875 122.609375 76.007812 123.632812 91.703125 C 123.082031 95.097656 120.59375 103.980469 115.71875 104.628906 C 114.5 104.792969 113.632812 105.921875 113.792969 107.148438 C 113.945312 108.273438 114.910156 109.09375 116.011719 109.09375 L 116.308594 109.078125 C 125.664062 107.828125 127.992188 92.769531 128.09375 92.128906 L 128.113281 91.65625 C 127.195312 78.167969 131.523438 73.253906 131.640625 73.121094 Z M 131.640625 73.121094 "/>
<path style=" stroke:none;fill-rule:nonzero;fill:rgb(100%,100%,100%);fill-opacity:1;" d="M 94.542969 75.339844 C 95.765625 75.164062 96.621094 74.03125 96.453125 72.808594 C 96.269531 71.578125 95.109375 70.742188 93.921875 70.902344 C 92.023438 71.175781 84.804688 71.535156 83.933594 68.378906 C 83.609375 67.183594 82.382812 66.496094 81.183594 66.804688 C 79.984375 67.132812 79.28125 68.363281 79.605469 69.558594 C 81.003906 74.6875 86.996094 75.574219 90.992188 75.574219 C 92.753906 75.570312 94.140625 75.394531 94.542969 75.339844 Z M 94.542969 75.339844 "/>
</g>
</svg>
