<?xml version="1.0" encoding="UTF-8"?>
<svg xmlns="http://www.w3.org/2000/svg" xmlns:xlink="http://www.w3.org/1999/xlink" width="194pt" height="194pt" viewBox="0 0 194 194" version="1.1">
<g id="surface1">
<path style=" stroke:none;fill-rule:evenodd;fill:rgb(100%,100%,100%);fill-opacity:1;" d="M 0.261719 193.433594 L 193.015625 193.433594 L 193.015625 0.675781 L 0.261719 0.675781 Z M 0.261719 193.433594 "/>
<path style=" stroke:none;fill-rule:evenodd;fill:rgb(93.528748%,17.294312%,18.843079%);fill-opacity:1;" d="M 39.960938 83.476562 C 34.707031 64.5625 37.753906 47.015625 37.753906 25.792969 C 56.664062 16.441406 75.472656 15.601562 95.855469 15.601562 C 113.402344 15.601562 138.304688 17.808594 153.328125 25.792969 C 154.90625 45.753906 155.746094 63.304688 150.597656 85.996094 C 145.554688 108.691406 130.636719 140.109375 96.59375 163.222656 C 59.398438 138.953125 47.316406 109.53125 39.960938 83.476562 "/>
<path style=" stroke:none;fill-rule:evenodd;fill:rgb(100%,100%,100%);fill-opacity:1;" d="M 57.714844 55.738281 L 39.433594 75.59375 C 43.53125 94.71875 54.878906 134.644531 96.382812 161.648438 C 137.570312 133.277344 148.601562 94.507812 151.019531 75.175781 L 133.261719 55.632812 L 113.613281 75.59375 L 95.4375 55.84375 L 77.363281 75.386719 L 57.714844 55.738281 "/>
<path style=" stroke:none;fill-rule:evenodd;fill:rgb(100%,100%,100%);fill-opacity:1;" d="M 66.121094 35.460938 C 65.910156 35.460938 65.386719 35.355469 66.121094 35.144531 C 66.648438 35.144531 67.382812 35.144531 68.328125 36.511719 C 68.855469 36.300781 69.90625 34.617188 71.058594 35.144531 C 70.957031 36.824219 67.382812 43.234375 66.964844 43.863281 C 65.386719 42.917969 56.246094 42.5 57.085938 42.5 C 57.824219 42.5 48.46875 42.710938 47.210938 43.863281 C 46.789062 42.917969 43.113281 36.824219 43.113281 34.828125 C 44.164062 34.410156 45.421875 35.984375 45.84375 36.300781 C 46.789062 34.828125 47.628906 34.828125 47.945312 34.828125 C 48.785156 35.144531 48.363281 35.355469 48.050781 35.460938 C 43.636719 39.242188 50.152344 43.234375 51.414062 39.242188 C 57.296875 39.765625 55.824219 35.144531 54.355469 34.410156 C 53.304688 34.09375 54.039062 33.988281 54.355469 33.988281 C 54.878906 33.777344 55.511719 33.777344 55.511719 34.09375 C 55.511719 31.675781 55.824219 29.890625 57.085938 29.261719 C 58.453125 30.101562 58.769531 31.675781 58.453125 34.09375 C 58.769531 33.777344 59.398438 33.988281 59.816406 33.988281 C 60.027344 34.09375 60.972656 34.09375 60.027344 34.617188 C 58.453125 35.144531 57.085938 39.976562 62.761719 39.242188 C 64.125 43.234375 70.957031 38.714844 66.121094 35.460938 Z M 62.339844 40.292969 L 63.808594 42.289062 L 60.761719 41.867188 Z M 51.9375 40.292969 L 50.570312 42.289062 L 53.722656 42.078125 Z M 57.085938 38.085938 L 59.398438 41.867188 L 55.089844 41.867188 L 57.085938 38.085938 "/>
<path style=" stroke:none;fill-rule:evenodd;fill:rgb(100%,100%,100%);fill-opacity:1;" d="M 49.625 48.382812 C 48.996094 47.332031 48.261719 45.546875 47.839844 44.808594 C 49.417969 43.652344 55.40625 43.550781 57.402344 43.445312 C 60.65625 43.445312 65.070312 43.96875 66.648438 44.808594 C 66.648438 44.496094 65.703125 47.644531 65.28125 48.59375 C 62.867188 47.644531 59.292969 47.542969 57.191406 47.542969 C 54.667969 47.332031 51.621094 47.644531 49.625 48.382812 Z M 64.335938 45.230469 C 64.964844 45.230469 65.386719 45.652344 65.386719 46.28125 C 65.386719 46.910156 64.964844 47.332031 64.335938 47.332031 C 63.707031 47.332031 63.285156 46.910156 63.285156 46.28125 C 63.285156 45.652344 63.707031 45.230469 64.335938 45.230469 Z M 60.867188 44.496094 C 61.5 44.496094 61.917969 44.914062 61.917969 45.546875 C 61.917969 46.175781 61.5 46.597656 60.867188 46.597656 C 60.238281 46.597656 59.816406 46.175781 59.816406 45.546875 C 59.816406 44.914062 60.238281 44.496094 60.867188 44.496094 Z M 57.613281 44.179688 C 58.136719 44.179688 58.769531 44.808594 58.769531 45.335938 C 58.769531 45.859375 58.136719 46.386719 57.613281 46.386719 C 57.085938 46.386719 56.5625 45.859375 56.5625 45.335938 C 56.5625 44.808594 57.085938 44.179688 57.613281 44.179688 Z M 54.039062 44.496094 C 54.667969 44.496094 55.195312 44.914062 55.195312 45.546875 C 55.195312 46.28125 54.667969 46.597656 54.039062 46.597656 C 53.515625 46.597656 52.988281 46.28125 52.988281 45.546875 C 52.988281 44.914062 53.515625 44.496094 54.039062 44.496094 Z M 50.570312 45.230469 C 50.992188 45.230469 51.414062 45.546875 51.414062 46.28125 C 51.414062 46.910156 50.992188 47.332031 50.570312 47.332031 C 49.941406 47.332031 49.417969 46.910156 49.417969 46.28125 C 49.417969 45.546875 49.941406 45.230469 50.570312 45.230469 "/>
<path style=" stroke:none;fill-rule:evenodd;fill:rgb(100%,100%,100%);fill-opacity:1;" d="M 57.402344 48.382812 C 61.710938 48.382812 65.070312 48.804688 65.070312 49.433594 C 65.070312 49.855469 61.710938 50.167969 57.402344 50.167969 C 53.304688 50.167969 49.835938 49.855469 49.835938 49.433594 C 49.835938 48.804688 53.304688 48.382812 57.402344 48.382812 "/>
<path style=" stroke:none;fill-rule:evenodd;fill:rgb(100%,100%,100%);fill-opacity:1;" d="M 142.296875 35.460938 C 141.773438 35.460938 141.351562 35.355469 142.296875 35.144531 C 142.71875 35.144531 143.664062 35.144531 144.292969 36.511719 C 144.714844 36.300781 146.078125 34.617188 147.234375 35.144531 C 147.027344 36.824219 143.664062 43.234375 143.136719 43.863281 C 141.5625 42.917969 132.316406 42.5 133.15625 42.5 C 133.996094 42.5 124.75 42.710938 123.386719 43.863281 C 122.964844 42.917969 119.289062 36.824219 119.078125 34.828125 C 120.441406 34.410156 121.597656 35.984375 122.019531 36.300781 C 122.964844 34.828125 123.804688 34.828125 124.015625 34.828125 C 124.75 35.144531 124.539062 35.355469 124.226562 35.460938 C 119.496094 39.242188 126.328125 43.234375 127.484375 39.242188 C 133.472656 39.765625 131.894531 35.144531 130.425781 34.410156 C 129.375 34.09375 130.214844 33.988281 130.53125 33.988281 C 130.738281 33.777344 131.6875 33.777344 131.6875 34.09375 C 131.6875 31.675781 131.6875 29.890625 133.15625 29.261719 C 134.417969 30.101562 134.839844 31.675781 134.628906 34.09375 C 134.839844 33.777344 135.574219 33.988281 135.992188 33.988281 C 136.097656 34.09375 136.9375 34.09375 135.992188 34.617188 C 134.417969 35.144531 133.261719 39.976562 138.933594 39.242188 C 139.984375 43.234375 147.027344 38.714844 142.296875 35.460938 Z M 138.515625 40.292969 L 139.984375 42.289062 L 136.9375 41.867188 Z M 133.15625 38.085938 L 135.257812 41.867188 L 131.265625 41.867188 Z M 127.796875 40.292969 L 126.433594 42.289062 L 129.898438 42.078125 L 127.796875 40.292969 "/>
<path style=" stroke:none;fill-rule:evenodd;fill:rgb(100%,100%,100%);fill-opacity:1;" d="M 125.695312 48.382812 C 125.066406 47.332031 124.328125 45.546875 123.910156 44.808594 C 125.59375 43.652344 131.476562 43.550781 133.472656 43.445312 C 136.835938 43.445312 141.246094 43.96875 142.71875 44.808594 C 142.71875 44.496094 141.773438 47.644531 141.351562 48.59375 C 138.933594 47.644531 135.46875 47.542969 133.261719 47.542969 C 130.738281 47.332031 127.691406 47.644531 125.695312 48.382812 Z M 140.40625 45.230469 C 141.035156 45.230469 141.5625 45.652344 141.5625 46.28125 C 141.5625 46.910156 141.035156 47.332031 140.40625 47.332031 C 139.882812 47.332031 139.355469 46.910156 139.355469 46.28125 C 139.355469 45.652344 139.882812 45.230469 140.40625 45.230469 Z M 136.9375 44.496094 C 137.570312 44.496094 137.988281 44.914062 137.988281 45.546875 C 137.988281 46.175781 137.570312 46.597656 136.9375 46.597656 C 136.308594 46.597656 135.886719 46.175781 135.886719 45.546875 C 135.886719 44.914062 136.308594 44.496094 136.9375 44.496094 Z M 133.785156 44.179688 C 134.207031 44.179688 134.839844 44.808594 134.839844 45.335938 C 134.839844 45.859375 134.207031 46.386719 133.785156 46.386719 C 133.15625 46.386719 132.734375 45.859375 132.734375 45.335938 C 132.734375 44.808594 133.15625 44.179688 133.785156 44.179688 Z M 130.109375 44.496094 C 130.738281 44.496094 131.371094 44.914062 131.371094 45.546875 C 131.371094 46.28125 130.738281 46.597656 130.109375 46.597656 C 129.6875 46.597656 129.058594 46.28125 129.058594 45.546875 C 129.058594 44.914062 129.6875 44.496094 130.109375 44.496094 Z M 126.640625 45.230469 C 127.0625 45.230469 127.589844 45.546875 127.589844 46.28125 C 127.589844 46.910156 127.0625 47.332031 126.640625 47.332031 C 126.011719 47.332031 125.59375 46.910156 125.59375 46.28125 C 125.59375 45.546875 126.011719 45.230469 126.640625 45.230469 "/>
<path style=" stroke:none;fill-rule:evenodd;fill:rgb(100%,100%,100%);fill-opacity:1;" d="M 133.578125 48.382812 C 137.78125 48.382812 141.140625 48.804688 141.140625 49.433594 C 141.140625 49.855469 137.78125 50.167969 133.578125 50.167969 C 129.480469 50.167969 125.90625 49.855469 125.90625 49.433594 C 125.90625 48.804688 129.480469 48.382812 133.578125 48.382812 "/>
<path style=" stroke:none;fill-rule:evenodd;fill:rgb(100%,100%,100%);fill-opacity:1;" d="M 82.933594 23.691406 C 82.933594 23.691406 85.558594 24.742188 87.976562 23.902344 C 90.8125 22.535156 93.230469 22.011719 95.226562 22.953125 L 95.226562 46.808594 C 93.546875 46.175781 91.652344 46.386719 88.921875 47.015625 C 86.503906 47.753906 84.929688 47.753906 82.933594 47.332031 Z M 90.707031 41.238281 C 90.707031 40.398438 91.234375 40.1875 91.652344 40.1875 C 91.96875 40.1875 92.496094 40.398438 92.496094 41.238281 C 92.496094 42.183594 91.96875 42.394531 91.652344 42.394531 C 91.234375 42.394531 90.707031 42.183594 90.707031 41.238281 Z M 90.078125 41.238281 C 90.078125 42.8125 91.234375 43.023438 91.652344 43.023438 C 92.074219 43.023438 93.125 42.8125 93.125 41.238281 C 93.125 39.765625 92.074219 39.660156 91.652344 39.660156 C 91.234375 39.660156 90.078125 39.765625 90.078125 41.238281 Z M 88.816406 42.078125 L 87.554688 39.765625 L 86.820312 39.765625 L 86.820312 43.023438 L 87.453125 43.023438 L 87.453125 40.710938 L 88.710938 43.023438 L 89.449219 43.023438 L 89.449219 39.765625 L 88.816406 39.765625 Z M 85.453125 43.234375 L 86.085938 43.234375 L 86.085938 40.082031 L 85.453125 40.082031 Z M 93.652344 32.726562 L 92.703125 32.726562 L 92.179688 35.246094 L 91.550781 32.726562 L 90.605469 32.726562 L 90.605469 35.878906 L 91.234375 35.878906 L 91.234375 33.253906 L 91.863281 35.878906 L 92.390625 35.878906 L 93.019531 33.253906 L 93.019531 35.878906 L 93.652344 35.878906 Z M 87.660156 34.617188 C 87.660156 33.777344 88.1875 33.464844 88.605469 33.464844 C 88.816406 33.464844 89.449219 33.777344 89.449219 34.617188 C 89.449219 35.5625 88.816406 35.773438 88.605469 35.773438 C 88.1875 35.773438 87.660156 35.5625 87.660156 34.617188 Z M 87.03125 34.617188 C 87.03125 36.089844 88.082031 36.300781 88.605469 36.300781 C 88.921875 36.300781 90.078125 36.089844 90.078125 34.617188 C 90.078125 33.148438 88.921875 32.9375 88.605469 32.9375 C 88.082031 32.9375 87.03125 33.148438 87.03125 34.617188 Z M 84.613281 33.882812 L 85.246094 33.882812 C 85.558594 33.882812 85.980469 33.988281 85.980469 34.933594 C 85.980469 35.460938 85.769531 35.984375 85.246094 35.984375 L 84.613281 35.984375 Z M 83.878906 36.511719 L 85.246094 36.511719 C 86.398438 36.511719 86.609375 35.5625 86.609375 34.933594 C 86.609375 34.304688 86.398438 33.355469 85.347656 33.355469 L 83.878906 33.355469 Z M 89.972656 28.839844 L 88.710938 26.632812 L 87.976562 26.632812 L 87.976562 29.785156 L 88.605469 29.785156 L 88.605469 27.578125 L 89.867188 29.785156 L 90.605469 29.785156 L 90.605469 26.632812 L 89.972656 26.632812 Z M 86.503906 29.890625 L 87.03125 29.890625 L 87.03125 26.738281 L 86.503906 26.738281 L 86.503906 29.890625 "/>
<path style=" stroke:none;fill-rule:evenodd;fill:rgb(100%,100%,100%);fill-opacity:1;" d="M 81.882812 23.902344 L 79.886719 25.6875 L 79.886719 49.539062 L 81.882812 47.4375 L 81.882812 23.902344 "/>
<path style=" stroke:none;fill-rule:evenodd;fill:rgb(100%,100%,100%);fill-opacity:1;" d="M 80.621094 49.957031 L 82.828125 48.171875 C 84.507812 48.59375 87.976562 47.960938 89.550781 47.644531 C 92.285156 47.332031 93.441406 46.808594 95.4375 47.644531 C 94.28125 48.171875 93.652344 49.117188 93.652344 49.957031 L 80.621094 49.957031 "/>
<path style=" stroke:none;fill-rule:evenodd;fill:rgb(100%,100%,100%);fill-opacity:1;" d="M 110.988281 49.957031 L 108.78125 48.171875 C 106.890625 48.59375 103.738281 47.960938 102.054688 47.644531 C 99.113281 47.332031 98.167969 46.808594 96.382812 47.644531 C 97.328125 48.171875 97.851562 49.117188 97.746094 49.957031 L 110.988281 49.957031 "/>
<path style=" stroke:none;fill-rule:evenodd;fill:rgb(100%,100%,100%);fill-opacity:1;" d="M 109.410156 23.585938 L 111.511719 25.6875 L 111.511719 49.328125 L 109.410156 47.332031 L 109.410156 23.585938 "/>
<path style=" stroke:none;fill-rule:evenodd;fill:rgb(100%,100%,100%);fill-opacity:1;" d="M 108.570312 23.691406 C 108.570312 23.691406 105.839844 24.742188 103.421875 23.902344 C 100.480469 22.535156 98.167969 22.011719 96.488281 22.953125 L 96.488281 46.808594 C 97.957031 46.175781 99.742188 46.386719 102.371094 47.015625 C 104.996094 47.753906 106.46875 47.753906 108.570312 47.332031 Z M 98.902344 42.917969 L 100.375 42.917969 C 101.425781 42.917969 101.636719 41.867188 101.636719 41.238281 C 101.636719 40.605469 101.425781 39.660156 100.375 39.660156 L 98.902344 39.660156 Z M 99.640625 40.292969 L 100.269531 40.292969 C 100.585938 40.292969 100.898438 40.292969 100.898438 41.238281 C 100.898438 41.761719 100.796875 42.394531 100.269531 42.394531 L 99.640625 42.394531 Z M 102.476562 41.761719 C 102.476562 43.234375 103.632812 43.445312 104.050781 43.445312 C 104.472656 43.445312 105.628906 43.234375 105.628906 41.761719 C 105.628906 40.292969 104.472656 40.082031 104.050781 40.082031 C 103.632812 40.082031 102.476562 40.292969 102.476562 41.761719 Z M 103.210938 41.761719 C 103.210938 40.921875 103.632812 40.605469 104.050781 40.605469 C 104.367188 40.605469 104.894531 40.921875 104.894531 41.761719 C 104.894531 42.710938 104.367188 42.917969 104.050781 42.917969 C 103.632812 42.917969 103.210938 42.710938 103.210938 41.761719 Z M 100.691406 35.246094 L 102.160156 35.246094 L 102.160156 34.617188 L 100.691406 34.617188 L 100.691406 33.988281 L 102.371094 33.988281 L 102.371094 33.464844 L 100.058594 33.464844 L 100.058594 36.613281 L 100.691406 36.613281 Z M 103.105469 36.71875 L 103.84375 36.71875 L 103.84375 33.464844 L 103.105469 33.464844 Z M 100.164062 27.789062 C 100.058594 27.265625 99.742188 26.632812 98.796875 26.632812 C 97.957031 26.632812 97.328125 27.265625 97.328125 28.3125 C 97.328125 29.46875 97.957031 29.996094 98.796875 29.996094 C 99.535156 29.996094 100.058594 29.574219 100.164062 28.839844 L 99.429688 28.839844 C 99.429688 29.261719 99.113281 29.46875 98.796875 29.46875 C 98.167969 29.46875 97.957031 28.945312 97.957031 28.3125 C 97.957031 27.472656 98.484375 27.265625 98.796875 27.265625 C 99.324219 27.265625 99.429688 27.578125 99.429688 27.789062 Z M 100.691406 28.734375 C 100.691406 30.203125 101.847656 30.414062 102.265625 30.414062 C 102.6875 30.414062 103.84375 30.203125 103.84375 28.734375 C 103.84375 27.265625 102.6875 27.054688 102.265625 27.054688 C 101.847656 27.054688 100.691406 27.265625 100.691406 28.734375 Z M 101.425781 28.734375 C 101.425781 27.789062 101.847656 27.578125 102.265625 27.578125 C 102.582031 27.578125 103.105469 27.789062 103.105469 28.734375 C 103.105469 29.574219 102.582031 29.890625 102.265625 29.890625 C 101.847656 29.890625 101.425781 29.574219 101.425781 28.734375 Z M 106.257812 29.363281 L 104.996094 27.15625 L 104.261719 27.15625 L 104.261719 30.3125 L 104.894531 30.3125 L 104.894531 28.105469 L 106.257812 30.3125 L 106.890625 30.3125 L 106.890625 27.15625 L 106.257812 27.15625 L 106.257812 29.363281 "/>
<path style=" stroke:none;fill-rule:evenodd;fill:rgb(100%,100%,100%);fill-opacity:1;" d="M 95.855469 48.171875 C 95.015625 49.117188 94.597656 49.117188 94.804688 49.957031 L 96.695312 49.957031 C 97.011719 49.117188 96.695312 48.59375 95.855469 48.171875 "/>
<path style=" stroke:none;fill-rule:evenodd;fill:rgb(93.528748%,17.294312%,18.843079%);fill-opacity:1;" d="M 55.300781 92.40625 C 55.613281 91.777344 56.246094 89.988281 56.457031 89.359375 C 56.246094 88.730469 55.613281 88.203125 54.984375 88.203125 C 55.300781 87.574219 56.351562 86.628906 56.246094 86.207031 C 55.929688 85.578125 55.40625 85.785156 54.355469 85.15625 C 54.667969 84.421875 55.613281 83.894531 56.035156 83.894531 C 56.664062 83.789062 56.664062 82.847656 57.714844 82.425781 C 58.769531 81.796875 59.816406 81.796875 61.078125 81.796875 C 62.867188 81.898438 67.382812 83.160156 66.226562 88.730469 C 68.960938 94.402344 78.625 86.839844 81.988281 86.839844 C 81.355469 88.203125 80.621094 89.359375 79.886719 90.621094 C 80.832031 91.25 81.988281 90.621094 83.039062 90.621094 C 81.988281 93.667969 80.203125 95.035156 78.625 96.191406 C 80.203125 101.234375 85.980469 99.234375 91.128906 98.605469 C 90.5 100.285156 88.398438 100.601562 87.453125 101.863281 C 89.132812 103.648438 91.128906 106.066406 92.390625 108.691406 C 90.078125 107.117188 85.347656 105.433594 83.667969 104.910156 C 80.621094 103.648438 74.316406 103.648438 71.269531 104.910156 C 71.796875 106.066406 73.054688 106.695312 74.003906 107.433594 C 72.425781 110.480469 69.273438 108.691406 67.382812 108.0625 C 65.804688 109.324219 62.867188 109.324219 62.128906 108.691406 C 62.128906 108.691406 62.128906 107.957031 63.074219 107.117188 C 63.601562 106.382812 61.183594 106.066406 60.449219 104.910156 C 60.449219 103.859375 61.8125 104.910156 62.445312 103.648438 C 60.867188 100.601562 54.355469 99.867188 55.300781 92.40625 Z M 59.710938 83.578125 C 60.027344 83.578125 60.34375 83.894531 60.34375 84.210938 C 60.34375 84.527344 60.027344 84.84375 59.710938 84.84375 C 59.398438 84.84375 59.082031 84.527344 59.082031 84.210938 C 59.082031 83.894531 59.398438 83.578125 59.710938 83.578125 "/>
<path style=" stroke:none;fill-rule:evenodd;fill:rgb(93.528748%,17.294312%,18.843079%);fill-opacity:1;" d="M 99.429688 93.351562 C 99.640625 92.722656 100.164062 90.9375 100.691406 90.304688 C 100.164062 89.675781 99.640625 88.9375 99.113281 88.9375 C 99.429688 88.308594 100.480469 87.574219 100.164062 87.046875 C 100.058594 86.523438 99.640625 86.628906 98.589844 85.996094 C 98.796875 85.261719 99.640625 84.84375 100.164062 84.632812 C 100.796875 84.632812 100.796875 83.789062 101.742188 83.160156 C 102.789062 82.738281 104.050781 82.738281 105.207031 82.53125 C 106.890625 82.847656 111.617188 84.105469 110.355469 89.675781 C 113.089844 95.140625 122.859375 87.679688 126.222656 87.679688 C 125.59375 88.9375 124.644531 90.304688 124.015625 91.460938 C 124.960938 92.09375 126.222656 91.460938 127.273438 91.460938 C 126.222656 94.507812 124.328125 95.875 122.859375 97.136719 C 124.328125 101.96875 130.109375 100.179688 135.257812 99.550781 C 134.730469 101.234375 132.527344 101.335938 131.476562 102.703125 C 133.367188 104.59375 135.257812 107.011719 136.519531 109.53125 C 134.207031 108.0625 129.375 106.382812 127.902344 105.75 C 124.644531 104.59375 118.445312 104.59375 115.296875 105.75 C 115.820312 107.011719 117.1875 107.640625 118.132812 108.167969 C 116.449219 111.425781 113.402344 109.53125 111.617188 109.007812 C 109.9375 110.164062 106.992188 110.164062 106.257812 109.53125 C 106.257812 109.53125 106.257812 108.691406 107.203125 108.0625 C 107.835938 107.117188 105.417969 107.011719 104.578125 105.75 C 104.578125 104.59375 105.839844 105.75 106.574219 104.59375 C 104.894531 101.335938 98.589844 100.707031 99.429688 93.351562 Z M 103.738281 84.527344 C 104.15625 84.527344 104.261719 84.632812 104.261719 85.15625 C 104.261719 85.472656 104.15625 85.683594 103.738281 85.683594 C 103.421875 85.683594 103.105469 85.472656 103.105469 85.15625 C 103.105469 84.632812 103.421875 84.527344 103.738281 84.527344 "/>
<path style=" stroke:none;fill-rule:evenodd;fill:rgb(93.528748%,17.294312%,18.843079%);fill-opacity:1;" d="M 78.207031 124.664062 C 78.519531 124.03125 79.152344 122.246094 79.570312 121.617188 C 79.152344 120.984375 78.519531 120.25 77.996094 120.25 C 78.207031 119.621094 79.257812 118.882812 79.152344 118.464844 C 78.835938 117.832031 78.519531 117.9375 77.257812 117.308594 C 77.785156 116.574219 78.519531 116.152344 79.152344 115.941406 C 79.675781 115.941406 79.675781 115.101562 80.621094 114.472656 C 81.671875 114.050781 82.933594 114.050781 84.089844 113.839844 C 85.769531 114.050781 90.289062 115.417969 89.132812 120.984375 C 91.863281 126.449219 101.742188 118.988281 105.101562 118.988281 C 104.472656 120.25 103.527344 121.617188 102.898438 122.878906 C 103.84375 123.402344 105.101562 122.878906 105.945312 122.878906 C 105.101562 125.820312 103.210938 127.082031 101.742188 128.445312 C 103.210938 133.277344 108.992188 131.492188 114.140625 130.863281 C 113.613281 132.542969 111.40625 132.648438 110.355469 133.910156 C 112.246094 135.90625 114.140625 138.324219 115.398438 140.84375 C 113.089844 139.371094 108.253906 137.691406 106.785156 137.0625 C 103.527344 135.90625 97.328125 135.90625 94.175781 137.0625 C 94.699219 138.324219 95.960938 138.953125 97.011719 139.476562 C 95.332031 142.734375 92.285156 140.84375 90.289062 140.109375 C 88.816406 141.476562 85.980469 141.476562 85.035156 140.84375 C 85.035156 140.84375 85.035156 140.003906 86.085938 139.371094 C 86.714844 138.425781 84.300781 138.324219 83.457031 137.0625 C 83.457031 135.90625 84.71875 137.0625 85.453125 135.90625 C 83.773438 132.648438 77.257812 132.125 78.207031 124.664062 Z M 82.722656 115.835938 C 82.933594 115.835938 83.25 115.941406 83.25 116.46875 C 83.25 116.574219 82.933594 116.890625 82.722656 116.890625 C 82.304688 116.890625 81.988281 116.574219 81.988281 116.46875 C 81.988281 115.941406 82.304688 115.835938 82.722656 115.835938 "/>
<path style=" stroke:none;fill-rule:evenodd;fill:rgb(93.528748%,17.294312%,18.843079%);fill-opacity:1;" d="M 32.605469 115.730469 C 32.917969 114.367188 33.96875 113.316406 35.230469 113.105469 C 37.542969 112.582031 39.433594 109.847656 41.640625 109.53125 C 45.320312 109.113281 47.945312 112.582031 47.417969 114.472656 C 46.472656 116.257812 41.957031 118.359375 43.21875 120.25 C 45.738281 123.925781 47.628906 125.921875 47.945312 129.285156 C 48.15625 131.175781 44.582031 131.597656 44.582031 133.59375 C 47.210938 137.796875 67.699219 161.964844 84.613281 168.582031 C 84.929688 166.902344 84.71875 165.535156 88.710938 165.113281 C 92.390625 164.90625 98.902344 164.90625 102.6875 164.695312 C 107.308594 164.484375 106.785156 168.792969 108.464844 168.160156 C 125.59375 161.753906 144.609375 139.582031 148.285156 132.964844 C 148.285156 131.808594 146.5 130.863281 145.765625 130.023438 C 144.820312 129.078125 145.449219 126.449219 145.871094 125.503906 C 147.234375 122.773438 148.707031 121.300781 150.28125 118.042969 C 148.917969 115.628906 147.445312 115.835938 146.183594 114.15625 C 145.132812 111.320312 149.96875 107.222656 152.910156 109.007812 C 155.117188 109.953125 156.378906 111.214844 158.6875 112.476562 C 161.523438 114.050781 161 116.78125 160.160156 119.199219 C 159.003906 122.351562 156.796875 125.292969 155.429688 128.972656 C 154.484375 131.597656 156.589844 131.386719 156.902344 132.332031 C 158.269531 133.277344 158.480469 134.960938 156.691406 137.691406 C 147.761719 152.191406 129.6875 170.265625 112.246094 177.617188 C 110.671875 178.25 109.621094 178.878906 106.363281 178.25 C 103.945312 177.722656 104.578125 174.570312 103.421875 173.519531 C 103.003906 172.46875 88.292969 173.101562 87.453125 174.257812 C 86.925781 176.355469 85.664062 179.089844 83.144531 178.355469 C 65.492188 173.835938 37.964844 142.523438 35.230469 137.167969 C 34.285156 135.066406 35.757812 132.226562 37.753906 130.652344 C 37.964844 129.917969 36.703125 127.921875 36.597656 127.082031 C 35.230469 123.824219 31.660156 119.515625 32.605469 115.730469 "/>
<path style=" stroke:none;fill-rule:evenodd;fill:rgb(100%,100%,100%);fill-opacity:1;" d="M 150.074219 110.058594 C 149.023438 110.269531 146.5 112.371094 147.761719 113.527344 C 150.492188 113.945312 149.023438 110.898438 150.28125 110.585938 C 152.175781 110.585938 151.648438 112.582031 153.226562 111.84375 C 153.960938 110.585938 150.914062 109.847656 150.074219 110.058594 Z M 152.277344 114.15625 L 151.019531 112.789062 C 150.492188 113.316406 149.546875 114.15625 149.128906 114.679688 C 149.546875 115.628906 150.28125 116.363281 151.121094 116.890625 C 151.753906 116.890625 152.070312 114.785156 152.277344 114.15625 Z M 159.320312 115.730469 C 159.84375 114.578125 155.957031 111.84375 154.378906 111.949219 C 154.378906 113.316406 153.855469 114.261719 152.804688 116.46875 C 151.230469 120.144531 148.285156 122.980469 147.128906 126.554688 C 146.921875 127.183594 146.5 127.921875 147.128906 128.550781 C 149.441406 126.972656 151.753906 126.765625 153.75 129.179688 C 154.277344 128.761719 154.484375 127.5 154.800781 126.765625 C 156.164062 123.824219 159.320312 119.832031 159.320312 115.730469 Z M 149.652344 128.761719 C 149.335938 128.761719 148.285156 129.496094 148.078125 129.707031 C 148.078125 130.230469 148.707031 130.652344 149.128906 131.074219 C 149.863281 130.652344 150.074219 129.496094 149.652344 128.761719 Z M 156.378906 135.277344 C 156.691406 133.277344 155.324219 132.753906 154.277344 131.808594 C 153.328125 130.863281 152.277344 130.230469 151.4375 129.285156 C 151.019531 131.074219 151.4375 131.074219 149.96875 132.753906 C 141.035156 146.414062 124.121094 162.382812 111.195312 168.371094 C 108.253906 169.949219 106.46875 170.265625 104.050781 170.054688 C 104.050781 170.578125 104.683594 171.628906 104.789062 172.15625 C 105.417969 173.941406 104.472656 178.5625 110.566406 177.09375 C 110.566406 177.09375 122.648438 172.574219 136.308594 159.96875 C 152.699219 144.730469 156.378906 135.277344 156.378906 135.277344 Z M 105.628906 167.847656 C 105.3125 167.636719 104.789062 168.160156 104.472656 168.371094 C 104.683594 168.582031 105.417969 168.898438 106.257812 168.6875 C 106.257812 168.058594 105.628906 168.058594 105.628906 167.847656 Z M 102.476562 168.6875 C 102.265625 167.320312 104.261719 167.320312 104.789062 166.691406 C 105.839844 165.011719 89.550781 165.851562 87.554688 166.480469 C 87.347656 167.109375 89.65625 167.742188 89.34375 169.632812 C 89.132812 170.578125 88.292969 171.417969 88.503906 172.574219 C 94.699219 171.523438 98.589844 171.523438 103.316406 172.15625 C 103.632812 171.417969 102.054688 169.84375 102.476562 168.6875 Z M 87.976562 168.371094 C 87.554688 168.371094 86.820312 167.847656 86.398438 167.847656 C 86.191406 168.058594 85.980469 168.265625 85.980469 168.6875 C 86.398438 169.109375 88.1875 169.316406 87.976562 168.371094 Z M 40.90625 129.496094 C 39.015625 131.074219 34.917969 133.59375 36.914062 138.007812 C 41.21875 145.152344 68.855469 174.257812 82.304688 176.988281 C 84.089844 177.617188 85.769531 176.355469 86.191406 173.730469 C 86.609375 171.105469 87.453125 171.839844 87.554688 170.265625 C 75.683594 170.789062 43.21875 137.585938 40.90625 129.496094 Z M 45.214844 130.863281 C 44.582031 130.230469 43.53125 128.550781 42.480469 128.761719 C 42.480469 129.917969 42.902344 131.386719 43.847656 132.4375 C 44.269531 132.019531 44.792969 131.386719 45.214844 130.863281 Z M 38.910156 112.371094 C 37.964844 112.789062 36.914062 114.15625 35.757812 114.367188 C 30.609375 115.3125 35.96875 122.140625 38.910156 129.496094 C 40.800781 127.394531 42.0625 127.710938 43.636719 127.921875 C 44.371094 128.234375 45.949219 129.917969 46.789062 129.601562 C 47.105469 128.867188 45.003906 125.1875 44.371094 124.242188 C 42.691406 121.828125 40.171875 117.730469 38.910156 112.371094 Z M 43.007812 113.105469 C 42.585938 113.527344 41.429688 114.578125 41.113281 115.101562 C 41.429688 116.152344 41.640625 116.78125 42.273438 117.9375 L 45.003906 115.730469 C 44.371094 114.996094 43.636719 114.367188 43.007812 113.105469 Z M 42.691406 110.585938 C 41.535156 110.6875 40.273438 111.632812 40.90625 113.316406 C 41.957031 112.683594 42.902344 111.214844 43.847656 111.53125 C 44.269531 112.160156 43.636719 112.683594 45.421875 114.578125 C 45.84375 114.578125 46.160156 114.367188 46.367188 114.15625 C 46.160156 112.160156 43.53125 110.792969 42.691406 110.585938 "/>
<path style=" stroke:none;fill-rule:evenodd;fill:rgb(93.528748%,17.294312%,18.843079%);fill-opacity:1;" d="M 40.484375 138.21875 C 40.800781 138.007812 40.90625 138.007812 41.113281 138.113281 L 41.324219 138.21875 L 41.429688 138.113281 C 41.324219 137.796875 41.011719 137.585938 40.800781 137.273438 C 40.695312 136.957031 40.378906 136.640625 40.171875 136.222656 C 39.960938 136.117188 39.855469 136.328125 39.855469 136.328125 L 40.066406 136.640625 C 40.171875 136.957031 40.171875 137.0625 39.855469 137.273438 L 39.433594 137.585938 C 39.015625 137.796875 38.910156 137.796875 38.699219 137.480469 C 38.488281 137.167969 38.277344 136.957031 38.277344 136.429688 C 38.277344 135.800781 38.59375 135.171875 39.433594 134.539062 C 40.484375 133.699219 41.640625 133.59375 42.375 134.644531 C 42.796875 135.171875 42.796875 135.800781 42.375 136.535156 C 42.375 136.535156 42.480469 136.746094 42.480469 136.640625 C 42.796875 136.328125 43.324219 136.011719 43.425781 135.90625 C 43.324219 135.695312 43.21875 135.171875 42.796875 134.539062 C 42.273438 133.910156 41.851562 133.488281 41.324219 133.382812 C 40.378906 132.753906 39.328125 132.964844 38.59375 133.59375 C 37.648438 134.226562 37.332031 135.171875 37.542969 136.222656 C 37.753906 136.746094 37.859375 137.167969 38.171875 137.585938 C 38.488281 138.007812 38.910156 138.425781 39.222656 138.742188 C 39.433594 138.742188 39.539062 138.953125 39.644531 138.953125 C 39.75 139.058594 39.855469 138.953125 39.855469 138.847656 C 39.75 138.742188 39.855469 138.742188 40.171875 138.425781 Z M 41.324219 139.898438 C 40.695312 140.421875 40.695312 140.421875 40.378906 140.214844 L 40.171875 140.003906 L 39.960938 140.214844 C 40.171875 140.527344 40.484375 140.738281 40.695312 141.054688 C 41.011719 141.371094 41.21875 141.683594 41.429688 142 C 41.640625 142 41.746094 141.894531 41.746094 141.789062 L 41.640625 141.683594 C 41.429688 141.371094 41.429688 141.265625 41.957031 140.738281 L 42.796875 140.214844 C 42.796875 140.003906 42.796875 140.003906 43.113281 140.214844 C 43.113281 140.421875 43.21875 140.527344 43.113281 140.738281 C 42.902344 141.160156 42.691406 141.578125 42.480469 142 C 42.375 142.628906 42.375 143.15625 42.796875 143.785156 C 43.113281 143.890625 43.21875 144.101562 43.324219 144.207031 C 43.425781 144.207031 43.53125 143.996094 43.53125 143.996094 C 43.425781 143.890625 43.324219 143.785156 43.324219 143.46875 C 43.324219 142.945312 43.636719 142.316406 44.058594 141.265625 C 44.164062 141.160156 44.164062 141.054688 44.269531 141.054688 C 44.582031 141.371094 45.109375 141.476562 45.632812 141.054688 C 46.054688 140.738281 46.160156 140.214844 46.054688 139.792969 C 46.054688 139.371094 45.738281 138.953125 45.320312 138.425781 C 44.898438 137.796875 44.371094 137.378906 44.058594 136.957031 C 43.953125 136.957031 43.742188 137.0625 43.742188 137.167969 L 43.847656 137.273438 C 44.058594 137.585938 44.058594 137.585938 43.425781 138.113281 Z M 44.582031 138.636719 C 44.792969 138.425781 44.898438 138.425781 45.109375 138.636719 C 45.527344 139.058594 45.320312 139.792969 44.792969 140.214844 C 44.476562 140.527344 44.164062 140.527344 44.058594 140.527344 C 43.742188 140.527344 43.636719 140.421875 43.425781 140.214844 C 43.113281 139.898438 43.113281 139.792969 43.324219 139.582031 Z M 46.054688 144.625 C 46.265625 144.835938 46.265625 144.941406 46.160156 145.046875 L 45.84375 145.570312 C 45.738281 145.886719 45.632812 146.097656 45.527344 146.097656 C 45.527344 146.097656 45.527344 146.097656 45.320312 146.097656 L 45.109375 145.78125 C 45.003906 145.78125 44.898438 145.886719 44.898438 146.097656 C 45.109375 146.308594 45.320312 146.519531 45.632812 146.832031 C 45.84375 147.148438 46.054688 147.464844 46.367188 147.777344 C 46.367188 147.777344 46.578125 147.671875 46.578125 147.570312 L 46.367188 147.359375 C 46.265625 147.042969 46.367188 146.832031 46.578125 146.414062 L 48.261719 143.679688 C 48.574219 143.15625 48.679688 142.839844 48.785156 142.628906 C 48.890625 142.523438 48.890625 142.523438 48.785156 142.417969 C 48.785156 142.417969 48.261719 142.417969 48.050781 142.210938 C 47.839844 142.316406 47.523438 142.417969 47.105469 142.628906 L 45.214844 143.367188 C 44.582031 143.574219 44.269531 143.785156 43.847656 143.785156 C 43.636719 143.890625 43.425781 143.785156 43.324219 143.679688 L 43.113281 143.46875 C 43.007812 143.46875 42.796875 143.679688 42.902344 143.785156 C 43.113281 143.996094 43.324219 144.207031 43.425781 144.3125 C 43.636719 144.625 43.847656 144.835938 44.058594 145.152344 C 44.164062 145.152344 44.269531 144.941406 44.269531 144.941406 L 44.164062 144.625 C 44.058594 144.523438 44.058594 144.417969 44.058594 144.417969 C 44.164062 144.3125 44.164062 144.3125 44.269531 144.3125 L 45.214844 143.890625 C 45.320312 143.785156 45.320312 143.785156 45.527344 143.996094 Z M 45.84375 143.785156 C 45.84375 143.679688 45.738281 143.679688 45.949219 143.574219 L 46.578125 143.367188 C 46.894531 143.15625 47.316406 143.050781 47.316406 142.945312 C 47.316406 143.15625 47.210938 143.46875 47 143.785156 L 46.578125 144.3125 C 46.578125 144.523438 46.472656 144.417969 46.367188 144.3125 Z M 52.253906 149.355469 C 52.671875 148.933594 53.199219 148.617188 53.40625 148.515625 C 53.515625 148.410156 53.617188 148.515625 53.828125 148.617188 L 53.933594 148.722656 C 54.144531 148.722656 54.144531 148.515625 54.144531 148.515625 C 53.933594 148.199219 53.828125 148.09375 53.515625 147.882812 C 53.304688 147.671875 53.09375 147.359375 52.882812 147.148438 C 52.671875 147.148438 52.671875 147.253906 52.671875 147.359375 L 52.671875 147.464844 C 52.882812 147.671875 52.988281 147.777344 52.882812 147.882812 C 52.777344 148.199219 52.359375 148.617188 51.9375 149.144531 L 51.203125 149.878906 C 51.097656 149.984375 50.992188 149.984375 50.886719 150.089844 C 50.992188 149.777344 50.992188 149.460938 50.992188 148.933594 L 51.097656 147.882812 C 51.203125 146.832031 51.203125 146.097656 51.414062 145.78125 C 51.308594 145.675781 51.097656 145.46875 50.992188 145.257812 C 50.675781 144.941406 50.464844 144.730469 50.257812 144.523438 C 50.152344 144.417969 50.046875 144.625 49.941406 144.625 L 50.152344 144.835938 C 50.257812 145.046875 50.257812 145.257812 50.257812 145.363281 C 50.257812 145.570312 50.152344 145.570312 49.835938 145.78125 L 48.46875 147.253906 C 47.945312 147.777344 47.523438 148.09375 47.316406 148.199219 C 47.210938 148.199219 47 148.199219 46.789062 148.09375 L 46.683594 147.988281 L 46.472656 148.199219 C 46.683594 148.515625 47 148.617188 47.210938 148.828125 C 47.316406 149.039062 47.523438 149.25 47.839844 149.566406 L 48.050781 149.355469 L 47.945312 149.144531 C 47.839844 149.039062 47.734375 148.828125 47.734375 148.722656 C 47.839844 148.515625 48.261719 148.09375 48.679688 147.570312 L 49.730469 146.519531 C 50.046875 146.308594 50.152344 146.203125 50.152344 146.203125 C 50.257812 146.414062 50.152344 146.832031 50.046875 147.570312 L 49.730469 150.300781 C 49.730469 150.929688 49.625 151.457031 49.625 151.457031 C 49.730469 151.5625 49.941406 151.667969 50.046875 151.667969 C 50.257812 151.457031 50.570312 151.140625 50.992188 150.71875 Z M 52.359375 152.191406 C 51.832031 152.71875 51.726562 152.71875 51.414062 152.613281 L 51.203125 152.402344 L 51.097656 152.613281 C 51.414062 152.925781 51.726562 153.136719 52.042969 153.453125 C 52.148438 153.664062 52.359375 153.976562 52.671875 154.1875 C 53.199219 154.820312 53.828125 155.132812 54.460938 155.34375 C 55.300781 155.660156 56.246094 155.34375 57.085938 154.609375 C 57.714844 153.871094 58.03125 152.925781 57.402344 151.769531 C 57.191406 151.351562 56.769531 150.929688 56.351562 150.40625 C 55.71875 149.777344 55.300781 149.355469 54.773438 149.039062 C 54.667969 148.933594 54.566406 149.144531 54.566406 149.144531 L 54.667969 149.25 C 54.878906 149.566406 54.773438 149.667969 54.355469 150.195312 Z M 55.300781 150.71875 C 55.511719 150.617188 55.613281 150.511719 55.71875 150.40625 C 55.824219 150.40625 55.929688 150.511719 56.035156 150.617188 C 57.085938 151.667969 57.085938 152.71875 56.035156 153.871094 C 55.300781 154.609375 54.144531 155.132812 53.199219 154.1875 C 52.988281 153.976562 52.882812 153.769531 52.882812 153.558594 C 52.882812 153.242188 52.988281 153.136719 53.40625 152.820312 Z M 59.816406 154.820312 C 60.027344 154.609375 60.027344 154.609375 60.132812 154.714844 L 60.65625 155.238281 C 60.972656 155.449219 60.972656 155.660156 60.972656 155.972656 C 60.972656 156.078125 60.972656 156.289062 60.867188 156.5 C 60.972656 156.710938 60.972656 156.816406 61.078125 156.816406 C 61.394531 156.289062 61.8125 155.867188 61.8125 155.765625 C 61.8125 155.660156 61.5 155.449219 60.972656 155.027344 L 59.816406 153.976562 C 59.503906 153.664062 59.1875 153.453125 58.871094 153.136719 C 58.871094 153.136719 58.769531 153.242188 58.769531 153.453125 L 58.871094 153.558594 C 59.082031 153.871094 59.082031 153.871094 58.558594 154.398438 L 56.664062 156.605469 C 56.246094 157.128906 56.035156 157.128906 55.824219 156.917969 L 55.613281 156.816406 C 55.40625 156.816406 55.300781 156.917969 55.300781 157.023438 C 55.71875 157.445312 56.035156 157.550781 56.351562 157.863281 L 57.085938 158.601562 C 57.613281 158.914062 58.03125 159.546875 58.453125 159.757812 C 58.664062 159.652344 59.1875 159.335938 59.503906 159.019531 C 59.503906 158.914062 59.503906 158.808594 59.398438 158.808594 C 58.453125 159.230469 58.242188 159.019531 57.714844 158.601562 C 57.296875 158.285156 57.191406 158.074219 57.296875 157.863281 C 57.296875 157.761719 57.402344 157.445312 57.714844 157.128906 L 58.242188 156.5 C 58.453125 156.394531 58.453125 156.394531 58.558594 156.5 L 58.976562 156.816406 C 59.292969 157.128906 59.292969 157.234375 59.1875 157.550781 L 59.082031 157.761719 C 58.976562 157.863281 59.1875 158.074219 59.1875 157.96875 C 59.503906 157.761719 59.609375 157.550781 59.816406 157.339844 C 60.027344 157.128906 60.238281 156.816406 60.34375 156.710938 C 60.34375 156.605469 60.238281 156.5 60.027344 156.5 L 60.027344 156.605469 C 59.710938 156.816406 59.503906 156.816406 59.292969 156.5 L 58.871094 156.289062 C 58.664062 156.078125 58.769531 155.972656 58.871094 155.867188 Z M 62.96875 161.859375 C 63.496094 161.226562 63.390625 160.492188 63.074219 160.074219 L 62.96875 159.546875 C 62.761719 159.019531 62.761719 158.601562 62.96875 158.285156 C 63.179688 158.074219 63.601562 157.863281 63.914062 158.285156 C 64.441406 158.601562 64.230469 159.230469 64.230469 159.652344 C 64.230469 159.757812 64.441406 159.863281 64.441406 159.863281 C 64.757812 159.546875 64.964844 159.019531 65.070312 158.914062 C 65.070312 158.808594 64.964844 158.808594 64.859375 158.601562 C 64.757812 158.390625 64.441406 158.179688 64.230469 158.074219 C 63.390625 157.339844 62.445312 157.339844 61.917969 158.074219 C 61.5 158.601562 61.605469 159.335938 61.8125 159.96875 C 62.023438 160.386719 62.234375 161.015625 61.8125 161.542969 C 61.605469 161.859375 61.183594 161.964844 60.65625 161.542969 C 60.238281 161.226562 60.238281 160.28125 60.449219 159.757812 C 60.449219 159.757812 60.34375 159.546875 60.238281 159.652344 C 59.816406 160.074219 59.503906 160.492188 59.503906 160.808594 C 59.609375 161.015625 59.816406 161.542969 60.34375 161.859375 C 61.289062 162.699219 62.339844 162.699219 62.96875 161.859375 Z M 68.328125 161.542969 C 67.59375 161.015625 66.964844 160.703125 66.121094 160.808594 C 65.386719 160.808594 64.757812 161.015625 64.125 161.859375 C 63.601562 162.59375 63.496094 163.433594 63.707031 164.066406 C 63.914062 164.800781 64.441406 165.429688 64.964844 165.957031 C 65.386719 166.375 66.121094 166.480469 66.4375 166.585938 C 66.648438 166.480469 67.066406 166.164062 67.488281 165.746094 C 67.488281 165.640625 67.382812 165.535156 67.277344 165.429688 C 66.855469 165.851562 66.015625 166.164062 65.28125 165.535156 C 64.546875 165.011719 64.230469 163.75 65.175781 162.488281 C 66.121094 161.332031 67.382812 161.226562 68.117188 161.753906 C 68.75 162.171875 68.855469 162.804688 68.539062 163.539062 C 68.539062 163.644531 68.75 163.75 68.855469 163.644531 C 69.0625 163.328125 69.378906 162.804688 69.484375 162.699219 C 69.273438 162.488281 68.960938 161.964844 68.328125 161.542969 Z M 68.75 165.851562 C 68.117188 166.585938 68.011719 167.214844 68.117188 167.636719 C 68.328125 168.265625 68.75 168.6875 69.167969 169.003906 C 69.695312 169.316406 70.324219 169.421875 70.851562 169.316406 C 71.375 169.109375 71.902344 168.6875 72.320312 168.058594 L 72.847656 167.320312 C 73.160156 166.796875 73.476562 166.375 73.6875 166.164062 C 73.898438 166.0625 74.003906 166.0625 74.210938 166.164062 L 74.316406 166.269531 C 74.421875 166.164062 74.527344 166.0625 74.421875 166.0625 C 74.210938 165.851562 74.003906 165.746094 73.792969 165.429688 C 73.476562 165.429688 73.265625 165.113281 72.847656 164.90625 L 72.742188 165.113281 L 72.847656 165.324219 C 73.054688 165.429688 73.160156 165.640625 73.160156 165.746094 C 73.160156 166.0625 72.742188 166.480469 72.320312 167.007812 L 71.902344 167.847656 C 71.269531 168.6875 70.535156 169.316406 69.695312 168.6875 C 68.75 168.058594 69.167969 167.109375 69.695312 166.375 L 70.746094 164.90625 C 71.058594 164.273438 71.164062 164.273438 71.480469 164.378906 L 71.691406 164.484375 C 71.796875 164.484375 71.902344 164.273438 71.796875 164.273438 C 71.585938 163.960938 71.269531 163.855469 70.851562 163.644531 C 70.535156 163.328125 70.21875 163.117188 69.90625 163.015625 L 69.800781 163.117188 L 69.90625 163.328125 C 70.21875 163.539062 70.21875 163.644531 69.800781 164.273438 Z M 78.414062 170.789062 C 78.835938 170.265625 79.046875 169.632812 79.359375 169.527344 C 79.359375 169.421875 79.570312 169.421875 79.675781 169.527344 L 79.886719 169.632812 C 79.992188 169.527344 79.992188 169.421875 79.992188 169.316406 C 79.675781 169.214844 79.464844 169.003906 79.257812 168.898438 C 79.046875 168.6875 78.730469 168.582031 78.308594 168.476562 C 78.207031 168.476562 78.207031 168.582031 78.207031 168.6875 L 78.308594 168.6875 C 78.519531 168.898438 78.625 169.003906 78.625 169.214844 C 78.625 169.421875 78.308594 169.949219 78.101562 170.472656 L 77.574219 171.417969 C 77.363281 171.628906 77.363281 171.734375 77.363281 171.734375 C 77.363281 171.523438 77.15625 171.105469 77.050781 170.578125 L 76.839844 169.632812 C 76.734375 168.582031 76.523438 167.847656 76.628906 167.425781 C 76.417969 167.425781 76.3125 167.214844 76.101562 167.109375 C 75.789062 166.902344 75.367188 166.796875 75.15625 166.585938 C 74.949219 166.585938 74.949219 166.691406 74.949219 166.902344 L 75.15625 166.902344 C 75.261719 167.109375 75.367188 167.214844 75.367188 167.425781 C 75.367188 167.53125 75.261719 167.636719 75.15625 168.058594 L 74.105469 169.84375 C 73.792969 170.367188 73.476562 170.789062 73.265625 171 C 73.160156 171.105469 73.054688 171 72.847656 171 L 72.742188 171 C 72.636719 171 72.53125 171.105469 72.53125 171.210938 C 72.847656 171.417969 73.160156 171.417969 73.371094 171.628906 C 73.582031 171.734375 73.898438 171.945312 74.210938 172.15625 C 74.316406 172.050781 74.316406 171.945312 74.316406 171.839844 L 74.210938 171.734375 C 74.003906 171.628906 73.898438 171.417969 73.898438 171.316406 C 74.003906 171.105469 74.210938 170.472656 74.527344 169.949219 L 75.261719 168.6875 C 75.367188 168.476562 75.472656 168.265625 75.578125 168.265625 C 75.578125 168.476562 75.683594 168.792969 75.789062 169.527344 L 76.3125 172.363281 C 76.417969 172.890625 76.417969 173.519531 76.417969 173.519531 C 76.628906 173.519531 76.839844 173.519531 76.945312 173.519531 C 77.050781 173.207031 77.363281 172.890625 77.574219 172.363281 Z M 80.621094 173.941406 C 80.304688 174.675781 80.203125 174.675781 79.78125 174.675781 L 79.464844 174.464844 C 79.359375 174.464844 79.359375 174.675781 79.359375 174.675781 C 79.886719 174.992188 80.304688 175.097656 80.621094 175.304688 C 80.9375 175.410156 81.253906 175.621094 81.777344 175.832031 C 81.777344 175.832031 81.777344 175.621094 81.777344 175.515625 L 81.566406 175.410156 C 81.253906 175.203125 81.253906 175.203125 81.566406 174.464844 L 83.039062 171.316406 C 83.144531 171.105469 83.144531 171.105469 83.25 171.210938 L 83.773438 171.417969 C 84.300781 171.734375 84.300781 172.050781 84.195312 172.574219 C 84.195312 172.574219 84.402344 172.679688 84.402344 172.574219 C 84.613281 172.261719 84.929688 171.734375 85.035156 171.523438 C 85.035156 171.417969 85.035156 171.417969 85.035156 171.417969 L 84.929688 171.417969 C 84.71875 171.417969 84.71875 171.417969 84.195312 171.105469 L 81.566406 169.949219 C 81.042969 169.632812 81.042969 169.632812 81.042969 169.527344 C 80.9375 169.527344 81.042969 169.527344 80.9375 169.421875 L 80.832031 169.421875 C 80.621094 169.632812 80.410156 170.160156 79.992188 170.472656 C 79.992188 170.578125 80.097656 170.789062 80.304688 170.789062 C 80.726562 170.367188 80.9375 170.160156 81.460938 170.367188 L 81.988281 170.578125 C 82.09375 170.683594 82.09375 170.683594 82.09375 170.789062 L 80.621094 173.941406 "/>
<path style=" stroke:none;fill-rule:evenodd;fill:rgb(93.528748%,17.294312%,18.843079%);fill-opacity:1;" d="M 111.511719 173.414062 C 111.722656 173.308594 111.828125 173.308594 111.933594 173.414062 L 112.457031 173.941406 C 112.667969 174.257812 112.878906 174.359375 112.878906 174.464844 C 112.878906 174.464844 112.878906 174.570312 112.667969 174.675781 L 112.457031 174.886719 C 112.351562 174.886719 112.457031 174.992188 112.667969 175.097656 C 112.984375 174.886719 113.296875 174.78125 113.613281 174.570312 C 114.035156 174.464844 114.453125 174.257812 114.769531 174.152344 C 114.769531 173.941406 114.769531 173.835938 114.769531 173.835938 L 114.347656 173.941406 C 114.035156 173.941406 113.929688 173.835938 113.507812 173.414062 L 111.195312 171 C 110.671875 170.472656 110.566406 170.265625 110.355469 170.054688 C 110.253906 169.949219 110.253906 169.949219 110.144531 169.949219 C 110.144531 169.949219 109.9375 170.367188 109.726562 170.683594 C 109.726562 171 109.726562 171.316406 109.832031 171.839844 L 109.9375 173.941406 C 109.9375 174.570312 109.9375 174.992188 109.9375 175.410156 C 109.9375 175.726562 109.9375 175.832031 109.726562 176.042969 L 109.410156 176.148438 C 109.410156 176.253906 109.515625 176.355469 109.621094 176.460938 C 109.9375 176.355469 110.144531 176.148438 110.460938 176.042969 C 110.882812 175.832031 111.09375 175.726562 111.40625 175.726562 C 111.40625 175.621094 111.300781 175.410156 111.300781 175.410156 L 110.988281 175.410156 C 110.777344 175.410156 110.671875 175.410156 110.671875 175.410156 C 110.671875 175.410156 110.566406 175.304688 110.566406 175.097656 L 110.566406 174.152344 C 110.460938 173.941406 110.460938 173.941406 110.671875 173.835938 Z M 110.671875 173.308594 C 110.460938 173.414062 110.460938 173.414062 110.355469 173.207031 L 110.253906 172.574219 C 110.253906 172.15625 110.253906 171.839844 110.253906 171.523438 C 110.460938 171.628906 110.566406 171.945312 110.882812 172.15625 L 111.40625 172.785156 C 111.511719 172.890625 111.511719 172.996094 111.300781 173.101562 Z M 113.929688 171.839844 C 114.347656 172.785156 114.769531 173.207031 115.296875 173.308594 C 115.925781 173.414062 116.554688 173.308594 117.082031 173.101562 C 117.605469 172.785156 118.027344 172.15625 118.238281 171.628906 C 118.34375 171 118.132812 170.367188 117.710938 169.632812 L 117.289062 168.898438 C 117.082031 168.160156 116.765625 167.53125 116.765625 167.425781 C 116.765625 167.214844 116.871094 167.109375 117.082031 166.902344 L 117.1875 166.796875 L 117.082031 166.585938 C 116.765625 166.691406 116.554688 166.902344 116.238281 167.007812 C 115.925781 167.109375 115.609375 167.320312 115.1875 167.425781 C 115.1875 167.53125 115.1875 167.742188 115.296875 167.742188 L 115.609375 167.742188 C 115.820312 167.636719 115.925781 167.53125 116.136719 167.742188 C 116.238281 167.847656 116.554688 168.371094 116.871094 169.003906 L 117.394531 169.949219 C 117.921875 171 118.027344 171.839844 117.082031 172.363281 C 115.925781 172.996094 115.296875 172.050781 114.980469 171.210938 L 114.035156 169.527344 C 113.613281 168.792969 113.71875 168.6875 114.035156 168.476562 L 114.140625 168.265625 C 114.242188 168.265625 114.140625 168.160156 114.140625 168.058594 C 113.71875 168.265625 113.296875 168.582031 112.984375 168.6875 C 112.667969 168.898438 112.246094 169.109375 111.828125 169.214844 C 111.828125 169.214844 111.828125 169.527344 112.039062 169.527344 L 112.246094 169.421875 C 112.5625 169.316406 112.667969 169.316406 112.984375 170.054688 Z M 119.707031 164.484375 C 118.972656 165.011719 118.34375 165.640625 118.132812 166.480469 C 117.921875 167.109375 117.921875 167.953125 118.445312 168.792969 C 118.972656 169.738281 119.8125 170.054688 120.441406 170.054688 C 121.285156 170.160156 122.125 169.949219 122.753906 169.527344 C 123.386719 169.214844 123.699219 168.582031 124.015625 168.265625 C 124.015625 168.058594 123.910156 167.53125 123.59375 167.007812 C 123.488281 167.007812 123.386719 167.109375 123.28125 167.109375 C 123.386719 167.742188 123.386719 168.582031 122.4375 169.109375 C 121.703125 169.738281 120.339844 169.421875 119.496094 167.953125 C 118.65625 166.585938 118.972656 165.429688 119.8125 164.90625 C 120.546875 164.484375 121.285156 164.484375 121.808594 165.113281 C 121.914062 165.113281 122.125 165.011719 122.019531 164.800781 C 121.703125 164.484375 121.285156 163.855469 121.285156 163.75 C 121.074219 163.855469 120.339844 164.066406 119.707031 164.484375 Z M 125.800781 165.640625 C 126.328125 166.269531 126.328125 166.375 126.011719 166.691406 L 125.695312 166.902344 C 125.695312 167.007812 125.695312 167.109375 126.011719 167.109375 C 126.328125 166.796875 126.746094 166.480469 126.957031 166.269531 C 127.273438 166.0625 127.691406 165.851562 128.113281 165.535156 C 128.113281 165.324219 128.007812 165.324219 127.902344 165.324219 L 127.589844 165.429688 C 127.273438 165.640625 127.167969 165.640625 126.746094 165.011719 L 124.539062 162.066406 C 124.328125 161.859375 124.4375 161.753906 124.539062 161.648438 L 124.960938 161.4375 C 125.484375 160.914062 125.695312 161.226562 126.328125 161.542969 C 126.328125 161.648438 126.433594 161.4375 126.433594 161.4375 C 126.117188 161.015625 125.800781 160.386719 125.695312 160.175781 C 125.695312 160.175781 125.59375 160.175781 125.59375 160.28125 C 125.484375 160.28125 125.484375 160.28125 125.484375 160.28125 C 125.484375 160.492188 125.484375 160.597656 125.066406 160.914062 L 122.546875 162.804688 C 122.019531 163.117188 121.914062 163.117188 121.914062 163.015625 C 121.808594 163.015625 121.808594 163.015625 121.808594 163.117188 C 121.703125 163.117188 121.703125 163.117188 121.703125 163.222656 C 121.808594 163.539062 122.125 163.855469 122.335938 164.484375 C 122.4375 164.589844 122.546875 164.378906 122.648438 164.378906 C 122.4375 163.75 122.4375 163.328125 122.753906 162.910156 L 123.28125 162.59375 C 123.386719 162.488281 123.488281 162.59375 123.59375 162.699219 Z M 129.585938 161.964844 C 129.792969 161.753906 129.898438 161.753906 129.898438 161.753906 L 130.53125 162.277344 C 130.84375 162.382812 131.054688 162.488281 131.054688 162.59375 C 131.054688 162.59375 131.054688 162.59375 130.949219 162.804688 L 130.84375 163.015625 C 130.738281 163.117188 130.84375 163.222656 131.054688 163.328125 C 131.265625 163.015625 131.476562 162.804688 131.789062 162.488281 C 132.210938 162.277344 132.632812 162.066406 132.84375 161.753906 C 132.84375 161.648438 132.84375 161.4375 132.734375 161.542969 L 132.421875 161.648438 C 132.105469 161.753906 132 161.753906 131.476562 161.4375 L 128.535156 159.546875 C 128.007812 159.230469 127.796875 159.019531 127.589844 158.808594 C 127.484375 158.808594 127.484375 158.808594 127.273438 158.808594 C 127.273438 158.808594 127.378906 159.335938 127.0625 159.652344 C 127.273438 159.863281 127.273438 160.28125 127.484375 160.703125 L 128.113281 162.804688 C 128.429688 163.433594 128.429688 163.855469 128.535156 164.167969 C 128.636719 164.484375 128.535156 164.695312 128.429688 164.800781 L 128.21875 165.011719 C 128.21875 165.113281 128.324219 165.21875 128.429688 165.324219 C 128.742188 165.011719 128.847656 164.800781 129.058594 164.589844 C 129.375 164.484375 129.6875 164.273438 129.898438 164.167969 C 129.898438 163.960938 129.898438 163.855469 129.792969 163.855469 L 129.585938 163.855469 C 129.269531 164.066406 129.269531 164.066406 129.269531 164.066406 C 129.164062 163.960938 129.058594 163.855469 129.058594 163.75 L 128.742188 162.804688 C 128.636719 162.59375 128.636719 162.59375 128.742188 162.488281 Z M 128.742188 162.066406 C 128.535156 162.066406 128.429688 162.171875 128.429688 161.964844 L 128.113281 161.4375 C 128.007812 160.914062 127.902344 160.597656 127.796875 160.386719 C 128.007812 160.492188 128.324219 160.703125 128.636719 160.914062 L 129.269531 161.332031 C 129.375 161.4375 129.375 161.4375 129.269531 161.542969 Z M 132.84375 155.867188 C 132.316406 155.34375 132.316406 155.238281 132.527344 154.921875 L 132.632812 154.820312 C 132.632812 154.609375 132.632812 154.503906 132.527344 154.503906 C 132.210938 154.921875 132 155.238281 131.6875 155.449219 C 131.371094 155.765625 131.054688 155.972656 130.636719 156.289062 C 130.636719 156.394531 130.84375 156.5 130.84375 156.394531 L 131.054688 156.394531 C 131.371094 156.078125 131.476562 156.078125 132 156.710938 L 134.207031 159.019531 C 134.628906 159.441406 134.730469 159.546875 134.523438 159.863281 L 134.3125 160.175781 C 134.3125 160.28125 134.417969 160.28125 134.628906 160.386719 C 134.941406 159.96875 135.152344 159.652344 135.46875 159.335938 L 136.203125 158.601562 C 136.730469 158.179688 137.359375 157.550781 137.675781 157.339844 C 137.570312 157.023438 137.253906 156.394531 136.9375 156.078125 C 136.835938 156.078125 136.730469 156.183594 136.730469 156.183594 C 137.042969 157.339844 136.835938 157.445312 136.308594 157.96875 C 135.886719 158.496094 135.78125 158.496094 135.574219 158.496094 C 135.363281 158.496094 135.152344 158.285156 134.941406 157.96875 Z M 138.621094 153.453125 C 138.832031 153.242188 138.832031 153.242188 138.933594 153.242188 L 139.777344 153.558594 C 139.984375 153.664062 140.195312 153.769531 140.195312 153.769531 C 140.300781 153.871094 140.300781 153.976562 140.195312 154.082031 L 139.984375 154.292969 C 139.984375 154.398438 140.089844 154.503906 140.300781 154.609375 C 140.511719 154.1875 140.722656 153.976562 141.035156 153.664062 C 141.351562 153.347656 141.667969 153.03125 141.878906 152.71875 C 141.878906 152.613281 141.773438 152.507812 141.667969 152.507812 L 141.457031 152.71875 C 141.140625 152.820312 140.933594 152.820312 140.511719 152.613281 L 137.253906 151.246094 C 136.730469 151.035156 136.414062 150.929688 136.203125 150.71875 C 136.097656 150.71875 135.992188 150.71875 135.886719 150.824219 C 135.886719 150.824219 135.992188 151.351562 135.886719 151.667969 C 135.992188 151.875 136.203125 152.191406 136.414062 152.613281 L 137.359375 154.609375 C 137.675781 155.132812 137.988281 155.554688 138.09375 155.765625 C 138.199219 156.183594 138.199219 156.394531 137.988281 156.394531 L 137.882812 156.710938 C 137.882812 156.816406 137.988281 156.917969 138.09375 157.023438 C 138.410156 156.605469 138.515625 156.394531 138.726562 156.183594 C 138.933594 155.972656 139.144531 155.765625 139.460938 155.554688 C 139.460938 155.449219 139.25 155.238281 139.144531 155.238281 L 138.933594 155.449219 C 138.832031 155.554688 138.726562 155.660156 138.726562 155.554688 C 138.621094 155.554688 138.515625 155.554688 138.515625 155.34375 L 137.988281 154.503906 C 137.882812 154.292969 137.882812 154.292969 137.988281 154.1875 Z M 137.78125 153.769531 C 137.675781 153.871094 137.675781 153.871094 137.464844 153.664062 L 137.148438 153.136719 C 137.042969 152.820312 136.730469 152.402344 136.730469 152.191406 C 136.835938 152.191406 137.253906 152.507812 137.570312 152.613281 L 138.199219 152.925781 C 138.410156 152.925781 138.410156 153.03125 138.199219 153.136719 Z M 141.773438 151.246094 C 142.402344 151.667969 142.402344 151.769531 142.296875 152.085938 L 142.089844 152.296875 C 142.089844 152.402344 142.191406 152.507812 142.402344 152.507812 C 142.71875 152.191406 142.929688 151.875 143.136719 151.5625 C 143.347656 151.351562 143.558594 151.140625 143.875 150.929688 C 144.1875 150.511719 144.503906 150.089844 144.714844 149.460938 C 144.925781 148.933594 144.820312 148.410156 144.292969 147.777344 C 143.558594 147.359375 143.03125 147.464844 142.402344 147.882812 C 142.402344 147.882812 142.402344 147.882812 142.296875 147.882812 C 142.296875 147.882812 142.296875 147.777344 142.402344 147.777344 C 142.402344 147.464844 142.613281 146.9375 142.089844 146.414062 C 141.773438 145.992188 141.351562 145.992188 140.933594 146.097656 C 140.511719 146.308594 140.089844 146.621094 139.460938 147.148438 C 139.039062 147.777344 138.726562 148.304688 138.199219 148.828125 C 138.199219 148.933594 138.410156 149.039062 138.515625 149.039062 L 138.621094 148.933594 C 138.832031 148.617188 138.933594 148.722656 139.671875 149.25 Z M 139.984375 148.09375 C 139.671875 147.777344 139.671875 147.777344 139.882812 147.464844 C 140.300781 147.042969 140.828125 146.9375 141.351562 147.359375 C 141.773438 147.777344 141.878906 148.199219 141.5625 148.722656 C 141.246094 149.144531 141.246094 149.144531 140.933594 148.933594 Z M 141.667969 149.566406 C 141.457031 149.25 141.457031 149.25 141.773438 148.933594 C 142.191406 148.410156 142.929688 148.410156 143.453125 148.933594 C 143.980469 149.25 144.1875 149.878906 143.769531 150.300781 C 143.347656 150.824219 142.929688 150.617188 142.402344 150.195312 Z M 143.347656 143.050781 C 142.296875 144.417969 142.613281 146.097656 143.875 147.148438 C 145.34375 148.09375 146.921875 147.777344 147.972656 146.519531 C 149.023438 145.046875 148.8125 143.367188 147.339844 142.316406 C 145.976562 141.265625 144.292969 141.578125 143.347656 143.050781 Z M 146.710938 143.46875 C 147.761719 144.207031 148.390625 145.152344 147.761719 145.992188 C 146.921875 147.148438 145.34375 146.519531 144.503906 145.992188 C 143.453125 145.152344 143.03125 144.101562 143.558594 143.261719 C 144.1875 142.417969 145.449219 142.628906 146.710938 143.46875 Z M 149.546875 142.417969 C 150.179688 142.839844 150.179688 142.945312 150.074219 143.261719 L 149.96875 143.46875 C 149.96875 143.574219 150.179688 143.574219 150.28125 143.679688 C 150.492188 143.261719 150.703125 143.050781 150.914062 142.628906 C 151.121094 142.316406 151.335938 142 151.648438 141.683594 C 151.648438 141.578125 151.4375 141.476562 151.335938 141.476562 L 151.230469 141.683594 C 150.914062 141.789062 150.914062 141.789062 150.179688 141.476562 L 149.335938 140.949219 C 149.230469 140.738281 149.230469 140.738281 149.441406 140.527344 C 149.546875 140.320312 149.652344 140.320312 149.863281 140.320312 C 150.386719 140.421875 150.914062 140.421875 151.335938 140.527344 C 151.964844 140.632812 152.59375 140.320312 153.015625 139.792969 C 153.226562 139.476562 153.328125 139.371094 153.328125 139.058594 L 153.121094 139.058594 C 153.015625 139.164062 152.804688 139.269531 152.59375 139.371094 C 152.175781 139.476562 151.335938 139.371094 150.179688 139.164062 C 150.074219 139.164062 150.074219 139.164062 150.074219 139.058594 C 150.074219 138.636719 150.179688 138.007812 149.546875 137.691406 C 149.023438 137.378906 148.601562 137.378906 148.078125 137.480469 C 147.761719 137.691406 147.234375 138.113281 146.921875 138.636719 C 146.394531 139.371094 146.078125 139.898438 145.765625 140.421875 C 145.765625 140.527344 145.976562 140.632812 145.976562 140.632812 L 146.183594 140.421875 C 146.394531 140.109375 146.5 140.214844 147.128906 140.738281 Z M 147.339844 139.476562 C 147.027344 139.164062 147.027344 139.164062 147.234375 138.847656 C 147.550781 138.324219 148.285156 138.21875 148.917969 138.742188 C 149.230469 139.058594 149.335938 139.269531 149.441406 139.476562 C 149.546875 139.792969 149.335938 139.898438 149.230469 140.109375 C 148.917969 140.527344 148.917969 140.527344 148.707031 140.320312 Z M 150.386719 134.644531 C 150.179688 134.539062 150.074219 134.539062 150.179688 134.328125 L 150.597656 133.699219 C 150.703125 133.382812 151.019531 133.171875 151.230469 133.171875 C 151.335938 133.171875 151.648438 133.171875 151.964844 133.171875 C 151.964844 133.171875 152.175781 132.964844 152.070312 132.964844 C 151.648438 132.648438 151.019531 132.4375 150.914062 132.332031 C 150.914062 132.542969 150.597656 132.859375 150.386719 133.382812 L 149.546875 134.855469 C 149.230469 135.277344 149.023438 135.589844 148.8125 135.90625 C 148.8125 135.90625 148.917969 136.117188 149.023438 136.117188 L 149.230469 135.90625 C 149.441406 135.589844 149.546875 135.589844 150.179688 135.90625 L 152.804688 137.585938 C 153.433594 138.007812 153.433594 138.007812 153.433594 138.324219 L 153.226562 138.742188 C 153.121094 138.847656 153.433594 138.953125 153.539062 138.847656 C 153.855469 138.425781 153.960938 138.007812 154.171875 137.691406 L 154.695312 136.746094 C 155.117188 136.222656 155.535156 135.484375 155.746094 135.066406 C 155.640625 134.855469 155.117188 134.433594 154.90625 134.121094 C 154.695312 134.121094 154.589844 134.226562 154.589844 134.328125 C 155.222656 135.277344 155.011719 135.484375 154.695312 136.117188 C 154.277344 136.640625 154.277344 136.746094 153.960938 136.746094 C 153.855469 136.746094 153.644531 136.640625 153.328125 136.429688 L 152.488281 135.90625 C 152.277344 135.800781 152.277344 135.800781 152.277344 135.589844 L 152.59375 135.066406 C 152.804688 134.644531 152.910156 134.644531 153.328125 134.855469 L 153.539062 134.960938 C 153.644531 134.960938 153.75 134.644531 153.75 134.644531 C 153.433594 134.539062 153.121094 134.433594 152.910156 134.226562 C 152.59375 134.015625 152.382812 133.804688 152.175781 133.804688 C 152.175781 133.699219 151.964844 133.910156 151.964844 134.015625 L 152.175781 134.121094 C 152.488281 134.433594 152.488281 134.539062 152.277344 134.855469 L 151.964844 135.378906 C 151.859375 135.589844 151.859375 135.589844 151.648438 135.484375 L 150.386719 134.644531 "/>
</g>
</svg>
