<?xml version="1.0" ?><svg height="22px" version="1.1" viewBox="0 0 22 22" width="22px" xmlns="http://www.w3.org/2000/svg" xmlns:sketch="http://www.bohemiancoding.com/sketch/ns" xmlns:xlink="http://www.w3.org/1999/xlink"><title/><defs><path d="M0,0 L0,3 L1,3 L1,1 L3,1.00000004 L3,0 L0,0 Z M19,0 L19,1.00000004 L21,1 L21,3 L22,3 L22,0 L19,0 Z M0,19 L0,22 L3,22 L3,21.0000001 L1,21 L1,19 L0,19 Z M21,19 L21,21 L19,21 L19,22 L22,22 L22,19 L21,19 Z M2,2 L2,20 L20,20 L20,2 L2,2 Z M3,3 L3,19 L19,19 L19,3 L3,3 Z" id="path-1"/></defs><g fill="none" fill-rule="evenodd" id="miu" stroke="none" stroke-width="1"><g id="editor_resize_outline_stroke"><use fill="#fff" fill-rule="evenodd" xlink:href="#path-1"/><use fill="none" xlink:href="#path-1"/></g></g></svg>